<?xml version="1.0" encoding="UTF-8"?>
<svg id="coralBanner1" xmlns="http://www.w3.org/2000/svg" viewBox="0 0 558.74 347.09">
  <defs>
    <style>
      .cls-1, .cls-2 {
        fill: #ffebde;
        stroke: #570060;
        stroke-miterlimit: 10;
        stroke-width: 2.64px;
      }

      .cls-2, .cls-3 {
        opacity: .43;
      }

      .cls-4 {
        fill: #efd5d3;
        stroke-width: 0px;
      }
    </style>
  </defs>
  <g>
    <path class="cls-2" d="M218.12,238.34c-20.45-12.95-46.76-16.2-72.41-18.9-11.86-1.25-25.46-1.92-36,6.42-10.39,8.21-13.55,21.82-15.8,33.91-3.5,18.78-7,37.56-10.51,56.35-7.12-2.2-10.08-11.36-6.08-18.85-7.5,4.89-15.01,9.79-22.51,14.68-1.75-8.6.34-18.58,5.67-27.06-7.26-.42-14.52-.84-21.79-1.26,13.44-7.87,26.87-15.75,40.31-23.62-3.75-12.23-24.16-.51-33.13,11.43-8.97,11.93-27.42,25.57-33.69,14.77,7.91-8.73,15.82-17.47,23.72-26.2-11.11-.88-22.22-1.75-33.33-2.63,6.93-8.74,11.36-19.18,12.47-29.36,19.73,17.89,55.21,6.87,83.86-6.31,28.65-13.18,61.74-28.23,86.14-16.32,22.88,11.17,32.27,44.13,59.87,42.8,11.14-24.49-13-43.01-34.22-52.88-34.21-15.9-82.22-28.69-112.91,3.87-3.96-8.63-15.38-12.22-25.55-8.02,12.99-13.39,29-23.93,45.89-30.21-10.67-11.64-21.34-23.27-32.01-34.91,9.9-3.92,19.8-7.84,29.7-11.76-4.52,10.2,1.59,20.46,10.34,24.66,8.75,4.2,19.53,4.14,29.62,5.45,41.85,5.44,72.04,34.61,98.57,63.77,19.09-6.8,22.52-33.55,15.57-49.8-15.09-35.27-58.41-52.63-100.18-40.15,3.36-5.69,8.99-10.33,15.1-12.44-6.06-4.07-12.44-8.6-14.24-15.94-1.79-7.34,3.72-18.04,11.8-18.99,4.72,6.89,12.88,11.06,21.97,11.24-2.82-7.57-5.64-15.14-8.46-22.72,6.48-2.83,13.82-1.78,17.93,2.57,2.67-11.76,14.88-22.36,26.67-23.15-15.18,15.15-16.09,40.74-1.83,51.31,5.48-3.69,10.96-7.39,16.45-11.08-12.71,17.22-9.85,41.62,5.92,50.37,10.19.93,18.48-13.84,15.79-23.3-2.69-9.46-11.38-14.93-18.16-21.58-6.78-6.64-11.93-17.15-6.47-27.02,8.91,4.77,17.81,9.55,26.72,14.32,4.79-13.07,9.57-26.13,14.36-39.2,4.78,6.72,9.56,13.44,14.34,20.15-25.37,46.14-23.62,101.39,4.3,135.87,1.56-37.14,3.12-74.28,4.69-111.43.96-22.81.14-49.12-18.61-59.04,7.54,5.31,15.07,10.61,22.61,15.92,8.72-10.91,17.44-21.82,26.16-32.73,12.51.67,6.23,20.47-2.66,31.22s-16.45,29.94-4.35,31.97c8.17-13.02,16.35-26.04,24.52-39.07,3.64,12.93,22.95,16.11,34.75,5.72-10.84,18.76-30.9,33.22-51.22,36.93,7.7,14.2-11.47,32.35-20.59,49-19.29,35.18,6.02,77.9-19.87,109.49,29.11-11.9,53.82-39.23,62.06-68.66,8.25-29.43-.3-59.76-21.48-76.19,7.11-6.02,18.44-3.91,20.48,3.8,9.33-8.38,18.66-16.75,27.99-25.13,5.55,12.21,11.11,24.43,16.66,36.64-25.34,16.63-40.67,48.8-35.58,74.71,19.14-13.41,26.3-41.6,14.46-56.94-1.82,17.79,1.43,41.12,19.39,39.43,17.84-1.68,26.13-27.63,20.26-42.98-5.87-15.35-19.14-26.92-20.66-43.99,5.52,3.71,14.87,1.64,20.05-4.44,5.71,7.34,11.41,14.67,17.12,22.01,5.14-2.65,10.28-5.31,15.41-7.96,9.35,3.92,18.7,7.84,28.04,11.76-7.99,3.85-13.83,12.94-13.47,20.98-52.89,43.62-105.78,87.24-158.67,130.87,31.23-16.46,62.46-32.93,93.69-49.39,43.58-22.97,87.83-46.41,125.36-79.6-3.38,11.86,3.83,23.7,15.29,25.1-8.04,3.48-16.08,6.96-24.12,10.44,9.68,3,13.45,15.72,7.64,25.75-3.97-3.48-7.93-6.97-11.9-10.45-7.28,6.71-13.03,15.09-16.43,23.96-9.38-6.24-11.48-20.75-4.65-32.21-57.12,31.02-113.94,62.8-170.43,95.32,9.01,22.04,38.44,30.83,63.42,18.95-8.16-10.3-11.32-24.69-8.62-39.21,6.98,6.05,20.09,4.34,27.94-3.64-10.72,18.41-15.47,39.3-13.22,58.17,26.99-1.64,55.48-19.23,71.08-43.86-.22,6.24-.44,12.49-.66,18.73,8.42-10.17,19.47-18.36,31.36-23.26-1.82,7.21-7.39,14.08-14.31,17.64,4.19,10.86,8.39,21.72,12.58,32.58-17.2-10.03-38.86-13.69-60.82-10.26-3.96,16.6,12.38,28.65,29.08,27.1,16.7-1.55,32.7-12.34,47.39-23.01,3.43,3.58,6.86,7.16,10.3,10.75-5.97,3.73-11.94,7.45-17.9,11.18,3.69,8.69,7.37,17.39,11.06,26.08-16.02-17.13-53.3-7.81-66.61,16.65-14.13-34.35-62.8-45.46-100.17-22.86,11.18-11.29,22.35-22.59,33.53-33.88-14.28,1.86-28.55,3.72-42.83,5.58,2.01-4.9,4.01-9.8,6.02-14.71-7.15-14.24-22.27-23.29-39.44-23.63,6.37-13.56,11.17-28.54,7.89-41.36s-17.32-21.81-31.12-15.86c-18.4,7.94-21.76,32.1-22.34,50.66-2.21,69.79-30.14,2.52-49.32-9.63Z"/>
    <path class="cls-1" d="M218.12,238.34c-20.45-12.95-46.76-16.2-72.41-18.9-11.86-1.25-25.46-1.92-36,6.42-10.39,8.21-13.55,21.82-15.8,33.91-3.5,18.78-7,37.56-10.51,56.35-7.12-2.2-10.08-11.36-6.08-18.85-7.5,4.89-15.01,9.79-22.51,14.68-1.75-8.6.34-18.58,5.67-27.06-7.26-.42-14.52-.84-21.79-1.26,13.44-7.87,26.87-15.75,40.31-23.62-3.75-12.23-24.16-.51-33.13,11.43-8.97,11.93-27.42,25.57-33.69,14.77,7.91-8.73,15.82-17.47,23.72-26.2-11.11-.88-22.22-1.75-33.33-2.63,6.93-8.74,11.36-19.18,12.47-29.36,19.73,17.89,55.21,6.87,83.86-6.31,28.65-13.18,61.74-28.23,86.14-16.32,22.88,11.17,32.27,44.13,59.87,42.8,11.14-24.49-13-43.01-34.22-52.88-34.21-15.9-82.22-28.69-112.91,3.87-3.96-8.63-15.38-12.22-25.55-8.02,12.99-13.39,29-23.93,45.89-30.21-10.67-11.64-21.34-23.27-32.01-34.91,9.9-3.92,19.8-7.84,29.7-11.76-4.52,10.2,1.59,20.46,10.34,24.66,8.75,4.2,19.53,4.14,29.62,5.45,41.85,5.44,72.04,34.61,98.57,63.77,19.09-6.8,22.52-33.55,15.57-49.8-15.09-35.27-58.41-52.63-100.18-40.15,3.36-5.69,8.99-10.33,15.1-12.44-6.06-4.07-12.44-8.6-14.24-15.94-1.79-7.34,3.72-18.04,11.8-18.99,4.72,6.89,12.88,11.06,21.97,11.24-2.82-7.57-5.64-15.14-8.46-22.72,6.48-2.83,13.82-1.78,17.93,2.57,2.67-11.76,14.88-22.36,26.67-23.15-15.18,15.15-16.09,40.74-1.83,51.31,5.48-3.69,10.96-7.39,16.45-11.08-12.71,17.22-9.85,41.62,5.92,50.37,10.19.93,18.48-13.84,15.79-23.3-2.69-9.46-11.38-14.93-18.16-21.58-6.78-6.64-11.93-17.15-6.47-27.02,8.91,4.77,17.81,9.55,26.72,14.32,4.79-13.07,9.57-26.13,14.36-39.2,4.78,6.72,9.56,13.44,14.34,20.15-25.37,46.14-23.62,101.39,4.3,135.87,1.56-37.14,3.12-74.28,4.69-111.43.96-22.81.14-49.12-18.61-59.04,7.54,5.31,15.07,10.61,22.61,15.92,8.72-10.91,17.44-21.82,26.16-32.73,12.51.67,6.23,20.47-2.66,31.22s-16.45,29.94-4.35,31.97c8.17-13.02,16.35-26.04,24.52-39.07,3.64,12.93,22.95,16.11,34.75,5.72-10.84,18.76-30.9,33.22-51.22,36.93,7.7,14.2-11.47,32.35-20.59,49-19.29,35.18,6.02,77.9-19.87,109.49,29.11-11.9,53.82-39.23,62.06-68.66,8.25-29.43-.3-59.76-21.48-76.19,7.11-6.02,18.44-3.91,20.48,3.8,9.33-8.38,18.66-16.75,27.99-25.13,5.55,12.21,11.11,24.43,16.66,36.64-25.34,16.63-40.67,48.8-35.58,74.71,19.14-13.41,26.3-41.6,14.46-56.94-1.82,17.79,1.43,41.12,19.39,39.43,17.84-1.68,26.13-27.63,20.26-42.98-5.87-15.35-19.14-26.92-20.66-43.99,5.52,3.71,14.87,1.64,20.05-4.44,5.71,7.34,11.41,14.67,17.12,22.01,5.14-2.65,10.28-5.31,15.41-7.96,9.35,3.92,18.7,7.84,28.04,11.76-7.99,3.85-13.83,12.94-13.47,20.98-52.89,43.62-105.78,87.24-158.67,130.87,31.23-16.46,62.46-32.93,93.69-49.39,43.58-22.97,87.83-46.41,125.36-79.6-3.38,11.86,3.83,23.7,15.29,25.1-8.04,3.48-16.08,6.96-24.12,10.44,9.68,3,13.45,15.72,7.64,25.75-3.97-3.48-7.93-6.97-11.9-10.45-7.28,6.71-13.03,15.09-16.43,23.96-9.38-6.24-11.48-20.75-4.65-32.21-57.12,31.02-113.94,62.8-170.43,95.32,9.01,22.04,38.44,30.83,63.42,18.95-8.16-10.3-11.32-24.69-8.62-39.21,6.98,6.05,20.09,4.34,27.94-3.64-10.72,18.41-15.47,39.3-13.22,58.17,26.99-1.64,55.48-19.23,71.08-43.86-.22,6.24-.44,12.49-.66,18.73,8.42-10.17,19.47-18.36,31.36-23.26-1.82,7.21-7.39,14.08-14.31,17.64,4.19,10.86,8.39,21.72,12.58,32.58-17.2-10.03-38.86-13.69-60.82-10.26-3.96,16.6,12.38,28.65,29.08,27.1,16.7-1.55,32.7-12.34,47.39-23.01,3.43,3.58,6.86,7.16,10.3,10.75-5.97,3.73-11.94,7.45-17.9,11.18,3.69,8.69,7.37,17.39,11.06,26.08-16.02-17.13-53.3-7.81-66.61,16.65-14.13-34.35-62.8-45.46-100.17-22.86,11.18-11.29,22.35-22.59,33.53-33.88-14.28,1.86-28.55,3.72-42.83,5.58,2.01-4.9,4.01-9.8,6.02-14.71-7.15-14.24-22.27-23.29-39.44-23.63,6.37-13.56,11.17-28.54,7.89-41.36s-17.32-21.81-31.12-15.86c-18.4,7.94-21.76,32.1-22.34,50.66-2.21,69.79-30.14,2.52-49.32-9.63Z"/>
  </g>
  <g>
    <g class="cls-3">
      <path class="cls-4" d="M348.26,8.16c.88,4.06-2.52,13.92-8.34,20.97-6.43,7.78-14.66,22.98-10.94,32.93,1.58,4.25,5.09,7.03,9.87,7.83l3.56.6.27-.42.35.65c1.15,2.12,1.42,4.5.82,7.39l-4.54,3.84,2.52,1.96c-2.4,5.18-6.34,10.84-10.16,16.34-3.25,4.67-6.6,9.5-9.22,14.28-.79,1.45-1.52,2.9-2.18,4.37l1.74-41.47c.55-13.06.44-26.14-2.41-37.42l2.04,1.44,3.18-3.98,23.42-29.31M364.24,35.74c4.42,4.43,10.94,7.09,18.25,7.09.28,0,.55,0,.83-.01-10.01,10.09-22.96,17.41-36.01,19.9l11.22-17.88,5.71-9.1M294.83,44.12l3.26,4.58,3.17,4.46c-11.83,22.69-17.66,47.53-16.88,72.08.81,25.54,8.69,48.4,22.81,66.15-2.73-.9-5.59-1.37-8.51-1.37-3.75,0-7.47.78-11.04,2.32-9.65,4.17-16.66,12.43-20.83,24.56-2.82,8.22-4.39,18.33-4.78,30.9-.64,20.15-3.47,24.93-4.28,25.9-.66-.23-2.48-1.17-5.98-4.89-3.36-3.58-7-8.34-10.84-13.38-.5-.66-1-1.31-1.5-1.97,1.25.13,2.54.2,3.87.2.62,0,1.25-.02,1.87-.05l3.3-.16,1.37-3.01c5.85-12.86,3.88-25.86-5.71-37.6-8.67-10.6-21.73-18.06-31.16-22.44-24.11-11.21-46.11-16.89-65.39-16.9-19.51,0-35.98,5.85-49.05,17.4-2.96-3-6.83-5.13-11.21-6.18,9.96-8,21.05-14.37,32.68-18.7l7.55-2.81-5.44-5.93-16-17.45-10.68-11.65,13.5-5.35c.65,9.15,6.95,17.18,14.88,20.99,7.48,3.59,15.87,4.39,23.97,5.16,2.53.24,4.92.47,7.3.78,40.63,5.28,70.47,34.8,95.26,62.04l2.43,2.67,3.4-1.21c8.29-2.95,14.72-9.2,18.6-18.07,5.16-11.8,5.21-27.09.13-38.97-3.42-7.99-8.24-15.2-14.16-21.45.41.03.82.05,1.23.05,5.62,0,10.97-2.99,15.07-8.42,4.95-6.55,6.92-15.12,5.02-21.82-2.49-8.76-9.02-14.52-14.78-19.59-1.7-1.5-3.3-2.91-4.8-4.38-.35-.35-.7-.7-1.03-1.06l5.82-7.88,9.11,4.88,5.5,2.95,2.15-5.86,10.65-29.05.18-.48M226.05,51.46c-2.29,6.1-3.31,12.63-2.84,19.08.74,10.12,5.08,18.61,12.23,23.91l3.08,2.28,3.18-2.14.98-.66c-1.27,6.13-1.28,12.44.08,18.4.94,4.12,2.49,7.89,4.57,11.2-14.08-9.41-31.55-14.76-50.29-14.76-1.54,0-3.08.04-4.61.11l4.44-1.54-9.01-6.06c-6.02-4.05-10.73-7.56-12-12.73-.6-2.45.29-6.04,2.17-8.74.76-1.1,1.63-1.98,2.54-2.59,5.84,6.33,14.41,10.11,23.7,10.29l7.96.15-2.78-7.46-4.96-13.33-1.36-3.65c.08,0,.15,0,.23,0,2.69,0,5.08.89,6.56,2.45l6.97,7.37,2.24-9.9c.96-4.24,3.54-8.36,6.93-11.67M255.36,65.32l5.78,3.1-4.77,3.22c-.74-1.95-1.18-4.09-1.01-6.31M394.51,69.41l11.74,25.81c-4.77,3.53-9.19,7.6-13.23,12.17l-5.1-6.61-1.38,13.52c-.05.5-.1,1.01-.14,1.52-3.41,4.9-6.28,10.06-8.59,15.32-.32-5.89-1.25-11.69-2.81-17.31-1.94-7-4.79-13.49-8.44-19.32l5.46-4.9,11.57-10.39,10.92-9.81M430.19,70.69l5.07,6.52,8.56,11.01,2.76,3.55,4-2.07,7.14-3.69,6.03-3.11,13.47,5.65,3.57,1.5c-4.5,4.77-7.51,10.96-8.05,17l-36.27,29.92c3.05-9.21,3.24-19.57.18-27.59-2.49-6.51-6.12-12.25-9.63-17.8-3.58-5.66-7.01-11.1-9.02-16.99,4.24-.1,8.55-1.5,12.19-3.89M358.18,83.73c2.2.18,4.45,1.19,4.98,3.22l1.08,4.08c-1.85-2.59-3.88-5.03-6.06-7.3M532.89,123.41c.68,2.92,1.87,5.7,3.54,8.23,1.19,1.8,2.6,3.4,4.19,4.79l-2.01.87-11.12,4.81-13.1,5.67,4.66-7.83-17.33,9.41c-56.9,30.91-114.28,63-170.55,95.38l-4.1,2.36,1.79,4.38c.04.1.08.19.12.29-2.57-.84-5.23-1.5-7.96-1.95.7-1.71,1.33-3.39,1.92-5.03l39.69-20.93,53.02-27.95c39.91-21.04,81.07-42.74,117.26-72.52M514.25,147.99l13.78,4.27c2.57.8,4.59,2.79,5.7,5.63.66,1.69.95,3.53.87,5.39l-5.65-4.96-3.66-3.22-3.59,3.31c-5.76,5.31-10.58,11.51-14.22,18.21-2.71-5.54-2.36-13.28,1.46-19.71l5.31-8.91M397.63,156.02c3.18,2.36,6.94,3.63,11.17,3.76l-81.68,67.36c.17-1.72.26-3.4.27-5.03,19.92-13.07,35.82-32.43,44.11-53.44.17,1.4.38,2.79.65,4.16l1.6,8.17,6.82-4.78c7.12-4.99,13.06-12.09,17.06-20.21M164.82,206.48c6.79,0,12.63,1.24,17.84,3.78,6.11,2.98,11.22,7.79,16.23,13.26-15.81-5.2-33.49-7.45-52.61-9.47-3.64-.38-7.95-.77-12.41-.77-.47,0-.93,0-1.39.01,11.13-4.01,22.18-6.81,32.34-6.81M101.15,226.64c-7.69,9.09-10.53,21.19-12.57,32.13l-5.24,28.1-8.98,5.86-14.51,9.46c.6-4.89,2.38-9.92,5.21-14.42l4.88-7.76-9.16-.53-3.91-.23,24.86-14.57,3.7-2.17-1.26-4.1c-1.76-5.73-6.23-9.01-12.29-9.01-10.16,0-23.41,9.54-30.35,18.77-5.85,7.77-14.72,14.7-20.42,16.23l2.14-2.36,16.66-18.4,7.4-8.17-10.99-.87-15.98-1.26-8.05-.63c2.86-4.92,5.05-10.14,6.49-15.43,6.68,3.65,14.66,5.5,23.84,5.5,15.77,0,34.92-5.28,58.53-16.14M393.16,237.44c1.98.52,4.08.79,6.26.79,1.74,0,3.49-.17,5.22-.5-2.97,7.46-5.05,15.1-6.19,22.72-3.79-6.66-5.62-14.64-5.28-23.02M485.5,254.18l.28.73,6.29,16.29,1.4,3.62c-6.83-2.6-14.09-4.4-21.64-5.37l6.13-7.4c2.31-2.79,4.84-5.42,7.54-7.86M468.44,256.51l-.07,1.89-.37,10.63c-3.09-.28-6.22-.42-9.37-.42-1.16,0-2.32.02-3.48.06,4.76-3.67,9.23-7.74,13.29-12.16M397.4,274.28c0,2.16.08,4.31.24,6.45l-9.07,1.18-33.58,4.38,2.49-6.08.93-2.28-.59-1.17c5.06,1.54,10.49,2.36,16.14,2.36,7.95,0,16-1.67,23.43-4.84M436.59,280.14c-.01,5.65,1.85,11.06,5.48,15.65,6,7.6,15.98,12.14,26.7,12.14,1.14,0,2.28-.05,3.41-.16,16.52-1.54,31.86-11.02,46.23-21.26l1.86,1.94.56.59-3.3,2.06-8.95,5.59-3.93,2.45,1.81,4.26,4.19,9.9.6,1.41c-3.56-.99-7.4-1.5-11.44-1.5-16.32,0-32.93,8.04-43.25,20.32-5.04-8.02-12.13-14.78-20.88-19.83-11.04-6.37-24.17-9.74-37.96-9.74-6.61,0-13.18.77-19.58,2.27l3.84-3.88,11.14-11.25,5.06-5.11.41,3.45,5.1-.31c11.01-.67,22.27-3.84,32.89-8.98M346.76,1.35c-8.72,10.91-17.44,21.82-26.16,32.73-5.56-3.91-11.12-7.83-16.68-11.74,12.99,11.92,13.52,34.75,12.68,54.86-1.56,37.14-3.12,74.28-4.69,111.43-27.92-34.48-29.67-89.73-4.3-135.87-4.78-6.72-9.56-13.44-14.34-20.15-4.79,13.07-9.57,26.13-14.36,39.2-8.91-4.77-17.81-9.55-26.72-14.32-4.23,7.64-2.09,15.67,2.24,21.99.23-.15.45-.3.68-.46-.17.23-.34.47-.51.7,1.22,1.74,2.6,3.36,4.06,4.79,6.78,6.65,15.47,12.12,18.16,21.58,2.61,9.17-5.11,23.34-14.88,23.34-.3,0-.61-.01-.92-.04-15.55-8.62-18.55-32.49-6.43-49.66-.06-.08-.11-.16-.17-.25-5.26,3.54-10.51,7.08-15.77,10.63-14.26-10.57-13.35-36.17,1.83-51.31-11.79.79-24,11.39-26.67,23.15-2.57-2.72-6.4-4.14-10.49-4.14-2.46,0-5.01.52-7.44,1.58,2.82,7.57,5.64,15.14,8.45,22.72-9.08-.18-17.25-4.35-21.97-11.24-8.08.96-13.59,11.66-11.8,18.99s8.18,11.86,14.24,15.94c-6.11,2.12-11.74,6.75-15.1,12.44,9.14-2.73,18.34-4.03,27.32-4.03,32.05,0,61.08,16.63,72.87,44.18,6.95,16.26,3.53,43-15.57,49.8-26.52-29.16-56.71-58.33-98.57-63.77-10.09-1.31-20.87-1.25-29.62-5.45-8.75-4.2-14.86-14.47-10.34-24.66-9.9,3.92-19.8,7.84-29.7,11.76,10.67,11.64,21.34,23.27,32.01,34.91-16.89,6.28-32.9,16.82-45.89,30.21,2.88-1.19,5.87-1.75,8.76-1.75,7.29,0,13.96,3.6,16.79,9.78,13.99-14.84,31.57-20.26,49.81-20.26,21.78,0,44.49,7.73,63.11,16.39,21.22,9.87,45.36,28.39,34.22,52.88-.54.03-1.08.04-1.61.04-26.36,0-35.83-31.9-58.26-42.84-6.24-3.05-13.05-4.33-20.22-4.33-20.82,0-44.6,10.84-65.92,20.65-17.93,8.25-38.53,15.65-56.28,15.65-10.61,0-20.2-2.65-27.58-9.34-1.11,10.18-5.54,20.62-12.47,29.36,11.11.88,22.22,1.75,33.33,2.63-7.91,8.73-15.82,17.47-23.72,26.2,1.61,2.76,4.01,3.93,6.85,3.93,8.25,0,20.17-9.82,26.84-18.7,6.28-8.35,18.17-16.61,26.02-16.61,3.36,0,5.98,1.51,7.11,5.18-13.44,7.87-26.87,15.75-40.31,23.62,7.26.42,14.52.84,21.79,1.26-5.33,8.48-7.42,18.46-5.67,27.06,7.5-4.89,15.01-9.79,22.51-14.68-4,7.49-1.04,16.65,6.08,18.85l10.51-56.35c2.25-12.09,5.42-25.7,15.8-33.91,7.14-5.65,15.69-7.16,24.16-7.16,4.02,0,8.03.34,11.85.74,25.65,2.7,51.95,5.95,72.41,18.9,12.82,8.12,29.54,40.85,39.89,40.85,5.14,0,8.7-8.07,9.43-31.22.58-18.56,3.94-42.72,22.34-50.66,2.99-1.29,5.99-1.88,8.89-1.88,7.75,0,14.79,4.21,18.97,10.46,7.06-28.11-5.76-60.81,9.56-88.76,6.33-11.55,17.5-23.83,21.17-35.01-.15-.12-.3-.24-.45-.36.24-.21.49-.4.75-.59,1.33-4.59,1.33-8.98-.87-13.04,20.33-3.7,40.39-18.16,51.22-36.93-4.79,4.22-10.82,6.2-16.54,6.2-8.36,0-16.05-4.24-18.21-11.92-8.17,13.02-16.35,26.04-24.52,39.07-12.11-2.03-4.55-21.21,4.35-31.97s15.18-30.56,2.66-31.23h0ZM298,18.16c1.98,1.39,3.95,2.78,5.93,4.18-1.74-1.6-3.71-3-5.93-4.18h0ZM396.39,60.44c-9.33,8.38-18.66,16.75-27.99,25.13-1.23-4.67-5.87-7.29-10.92-7.29-3,0-6.15.92-8.81,2.89-.09.32-.19.63-.29.95,20.84,16.51,29.21,46.61,21.02,75.84-6.83,24.38-24.96,47.32-47.53,61.24.81,11.34-3.46,23.84-8.85,35.32,17.18.34,32.29,9.39,39.44,23.63-2.01,4.9-4.01,9.8-6.02,14.71,14.28-1.86,28.55-3.72,42.83-5.58-11.18,11.29-22.35,22.59-33.53,33.88,13.26-8.01,27.93-11.79,41.98-11.79,25.56,0,49.06,12.49,58.18,34.65,8.65-15.9,27.43-25.4,43.92-25.4,8.88,0,17.09,2.76,22.7,8.75-3.69-8.69-7.37-17.39-11.06-26.08,5.97-3.73,11.94-7.45,17.9-11.18-3.43-3.58-6.86-7.16-10.3-10.75-14.69,10.67-30.69,21.45-47.39,23.01-.97.09-1.94.13-2.91.13-15.62,0-29.9-11.6-26.17-27.23,5.38-.84,10.74-1.25,16.03-1.25,16.28,0,31.81,3.94,44.79,11.51-4.19-10.86-8.39-21.72-12.58-32.58,6.92-3.55,12.5-10.42,14.31-17.64-11.89,4.9-22.94,13.09-31.36,23.26l.66-18.73c-15.59,24.63-44.09,42.22-71.08,43.86-2.25-18.87,2.5-39.76,13.22-58.17-4.66,4.75-11.18,7.28-17.18,7.28-4.09,0-7.93-1.18-10.76-3.63-2.7,14.52.46,28.91,8.62,39.21-7.59,3.61-15.59,5.31-23.31,5.31-17.67,0-33.83-8.92-40.11-24.26,56.49-32.52,113.31-64.29,170.43-95.32-6.82,11.46-4.73,25.97,4.65,32.21,3.41-8.86,9.15-17.24,16.43-23.96,3.97,3.48,7.93,6.97,11.9,10.45,5.81-10.04,2.04-22.75-7.64-25.75,8.04-3.48,16.08-6.96,24.12-10.44-11.46-1.4-18.67-13.24-15.29-25.1-37.53,33.19-81.78,56.62-125.36,79.6-31.23,16.46-62.46,32.93-93.69,49.39,52.89-43.62,105.78-87.24,158.67-130.87-.36-8.04,5.47-17.13,13.47-20.98-9.35-3.92-18.7-7.84-28.04-11.76-5.14,2.65-10.28,5.31-15.41,7.96-5.71-7.34-11.41-14.67-17.12-22.01-3.43,4.02-8.68,6.29-13.44,6.29-2.44,0-4.74-.59-6.61-1.85,1.52,17.07,14.79,28.64,20.66,43.99,5.87,15.35-2.43,41.3-20.26,42.98-.62.06-1.22.09-1.81.09-6.45,0-10.82-3.47-13.64-8.72-2.93,10.08-9.32,19.78-18.41,26.14-3.41-17.4,2.37-37.62,14.22-54.06.07-.97.15-1.93.25-2.88.32.42.63.85.93,1.29,5.59-7.4,12.42-13.96,20.19-19.06-5.55-12.21-11.11-24.43-16.66-36.64h0ZM392.86,116.14c-.4.53-.79,1.06-1.17,1.59-.67,9.73.25,20.57,4.19,27.92,3.08-10.56,2.36-21.53-3.02-29.51h0ZM317.65,205.89c-1.83,7.27-4.99,14.24-10.31,20.73,4.99-2.04,9.86-4.54,14.53-7.42-.15-2.05-.46-4.07-.97-6.04-.67-2.62-1.79-5.07-3.26-7.27h0Z"/>
    </g>
    <path class="cls-4" d="M348.26,8.16c.88,4.06-2.52,13.92-8.34,20.97-6.43,7.78-14.66,22.98-10.94,32.93,1.58,4.25,5.09,7.03,9.87,7.83l3.56.6.27-.42.35.65c1.15,2.12,1.42,4.5.82,7.39l-4.54,3.84,2.52,1.96c-2.4,5.18-6.34,10.84-10.16,16.34-3.25,4.67-6.6,9.5-9.22,14.28-.79,1.45-1.52,2.9-2.18,4.37l1.74-41.47c.55-13.06.44-26.14-2.41-37.42l2.04,1.44,3.18-3.98,23.42-29.31M364.24,35.74c4.42,4.43,10.94,7.09,18.25,7.09.28,0,.55,0,.83-.01-10.01,10.09-22.96,17.41-36.01,19.9l11.22-17.88,5.71-9.1M294.83,44.12l3.26,4.58,3.17,4.46c-11.83,22.69-17.66,47.53-16.88,72.08.81,25.54,8.69,48.4,22.81,66.15-2.73-.9-5.59-1.37-8.51-1.37-3.75,0-7.47.78-11.04,2.32-9.65,4.17-16.66,12.43-20.83,24.56-2.82,8.22-4.39,18.33-4.78,30.9-.64,20.15-3.47,24.93-4.28,25.9-.66-.23-2.48-1.17-5.98-4.89-3.36-3.58-7-8.34-10.84-13.38-.5-.66-1-1.31-1.5-1.97,1.25.13,2.54.2,3.87.2.62,0,1.25-.02,1.87-.05l3.3-.16,1.37-3.01c5.85-12.86,3.88-25.86-5.71-37.6-8.67-10.6-21.73-18.06-31.16-22.44-24.11-11.21-46.11-16.89-65.39-16.9-19.51,0-35.98,5.85-49.05,17.4-2.96-3-6.83-5.13-11.21-6.18,9.96-8,21.05-14.37,32.68-18.7l7.55-2.81-5.44-5.93-16-17.45-10.68-11.65,13.5-5.35c.65,9.15,6.95,17.18,14.88,20.99,7.48,3.59,15.87,4.39,23.97,5.16,2.53.24,4.92.47,7.3.78,40.63,5.28,70.47,34.8,95.26,62.04l2.43,2.67,3.4-1.21c8.29-2.95,14.72-9.2,18.6-18.07,5.16-11.8,5.21-27.09.13-38.97-3.42-7.99-8.24-15.2-14.16-21.45.41.03.82.05,1.23.05,5.62,0,10.97-2.99,15.07-8.42,4.95-6.55,6.92-15.12,5.02-21.82-2.49-8.76-9.02-14.52-14.78-19.59-1.7-1.5-3.3-2.91-4.8-4.38-.35-.35-.7-.7-1.03-1.06l5.82-7.88,9.11,4.88,5.5,2.95,2.15-5.86,10.65-29.05.18-.48M226.05,51.46c-2.29,6.1-3.31,12.63-2.84,19.08.74,10.12,5.08,18.61,12.23,23.91l3.08,2.28,3.18-2.14.98-.66c-1.27,6.13-1.28,12.44.08,18.4.94,4.12,2.49,7.89,4.57,11.2-14.08-9.41-31.55-14.76-50.29-14.76-1.54,0-3.08.04-4.61.11l4.44-1.54-9.01-6.06c-6.02-4.05-10.73-7.56-12-12.73-.6-2.45.29-6.04,2.17-8.74.76-1.1,1.63-1.98,2.54-2.59,5.84,6.33,14.41,10.11,23.7,10.29l7.96.15-2.78-7.46-4.96-13.33-1.36-3.65c.08,0,.15,0,.23,0,2.69,0,5.08.89,6.56,2.45l6.97,7.37,2.24-9.9c.96-4.24,3.54-8.36,6.93-11.67M255.36,65.32l5.78,3.1-4.77,3.22c-.74-1.95-1.18-4.09-1.01-6.31M394.51,69.41l11.74,25.81c-4.77,3.53-9.19,7.6-13.23,12.17l-5.1-6.61-1.38,13.52c-.05.5-.1,1.01-.14,1.52-3.41,4.9-6.28,10.06-8.59,15.32-.32-5.89-1.25-11.69-2.81-17.31-1.94-7-4.79-13.49-8.44-19.32l5.46-4.9,11.57-10.39,10.92-9.81M430.19,70.69l5.07,6.52,8.56,11.01,2.76,3.55,4-2.07,7.14-3.69,6.03-3.11,13.47,5.65,3.57,1.5c-4.5,4.77-7.51,10.96-8.05,17l-36.27,29.92c3.05-9.21,3.24-19.57.18-27.59-2.49-6.51-6.12-12.25-9.63-17.8-3.58-5.66-7.01-11.1-9.02-16.99,4.24-.1,8.55-1.5,12.19-3.89M358.18,83.73c2.2.18,4.45,1.19,4.98,3.22l1.08,4.08c-1.85-2.59-3.88-5.03-6.06-7.3M532.89,123.41c.68,2.92,1.87,5.7,3.54,8.23,1.19,1.8,2.6,3.4,4.19,4.79l-2.01.87-11.12,4.81-13.1,5.67,4.66-7.83-17.33,9.41c-56.9,30.91-114.28,63-170.55,95.38l-4.1,2.36,1.79,4.38c.04.1.08.19.12.29-2.57-.84-5.23-1.5-7.96-1.95.7-1.71,1.33-3.39,1.92-5.03l39.69-20.93,53.02-27.95c39.91-21.04,81.07-42.74,117.26-72.52M514.25,147.99l13.78,4.27c2.57.8,4.59,2.79,5.7,5.63.66,1.69.95,3.53.87,5.39l-5.65-4.96-3.66-3.22-3.59,3.31c-5.76,5.31-10.58,11.51-14.22,18.21-2.71-5.54-2.36-13.28,1.46-19.71l5.31-8.91M397.63,156.02c3.18,2.36,6.94,3.63,11.17,3.76l-81.68,67.36c.17-1.72.26-3.4.27-5.03,19.92-13.07,35.82-32.43,44.11-53.44.17,1.4.38,2.79.65,4.16l1.6,8.17,6.82-4.78c7.12-4.99,13.06-12.09,17.06-20.21M164.82,206.48c6.79,0,12.63,1.24,17.84,3.78,6.11,2.98,11.22,7.79,16.23,13.26-15.81-5.2-33.49-7.45-52.61-9.47-3.64-.38-7.95-.77-12.41-.77-.47,0-.93,0-1.39.01,11.13-4.01,22.18-6.81,32.34-6.81M101.15,226.64c-7.69,9.09-10.53,21.19-12.57,32.13l-5.24,28.1-8.98,5.86-14.51,9.46c.6-4.89,2.38-9.92,5.21-14.42l4.88-7.76-9.16-.53-3.91-.23,24.86-14.57,3.7-2.17-1.26-4.1c-1.76-5.73-6.23-9.01-12.29-9.01-10.16,0-23.41,9.54-30.35,18.77-5.85,7.77-14.72,14.7-20.42,16.23l2.14-2.36,16.66-18.4,7.4-8.17-10.99-.87-15.98-1.26-8.05-.63c2.86-4.92,5.05-10.14,6.49-15.43,6.68,3.65,14.66,5.5,23.84,5.5,15.77,0,34.92-5.28,58.53-16.14M393.16,237.44c1.98.52,4.08.79,6.26.79,1.74,0,3.49-.17,5.22-.5-2.97,7.46-5.05,15.1-6.19,22.72-3.79-6.66-5.62-14.64-5.28-23.02M485.5,254.18l.28.73,6.29,16.29,1.4,3.62c-6.83-2.6-14.09-4.4-21.64-5.37l6.13-7.4c2.31-2.79,4.84-5.42,7.54-7.86M468.44,256.51l-.07,1.89-.37,10.63c-3.09-.28-6.22-.42-9.37-.42-1.16,0-2.32.02-3.48.06,4.76-3.67,9.23-7.74,13.29-12.16M397.4,274.28c0,2.16.08,4.31.24,6.45l-9.07,1.18-33.58,4.38,2.49-6.08.93-2.28-.59-1.17c5.06,1.54,10.49,2.36,16.14,2.36,7.95,0,16-1.67,23.43-4.84M436.59,280.14c-.01,5.65,1.85,11.06,5.48,15.65,6,7.6,15.98,12.14,26.7,12.14,1.14,0,2.28-.05,3.41-.16,16.52-1.54,31.86-11.02,46.23-21.26l1.86,1.94.56.59-3.3,2.06-8.95,5.59-3.93,2.45,1.81,4.26,4.19,9.9.6,1.41c-3.56-.99-7.4-1.5-11.44-1.5-16.32,0-32.93,8.04-43.25,20.32-5.04-8.02-12.13-14.78-20.88-19.83-11.04-6.37-24.17-9.74-37.96-9.74-6.61,0-13.18.77-19.58,2.27l3.84-3.88,11.14-11.25,5.06-5.11.41,3.45,5.1-.31c11.01-.67,22.27-3.84,32.89-8.98M346.76,1.35c-8.72,10.91-17.44,21.82-26.16,32.73-5.56-3.91-11.12-7.83-16.68-11.74,12.99,11.92,13.52,34.75,12.68,54.86-1.56,37.14-3.12,74.28-4.69,111.43-27.92-34.48-29.67-89.73-4.3-135.87-4.78-6.72-9.56-13.44-14.34-20.15-4.79,13.07-9.57,26.13-14.36,39.2-8.91-4.77-17.81-9.55-26.72-14.32-4.23,7.64-2.09,15.67,2.24,21.99.23-.15.45-.3.68-.46-.17.23-.34.47-.51.7,1.22,1.74,2.6,3.36,4.06,4.79,6.78,6.65,15.47,12.12,18.16,21.58,2.61,9.17-5.11,23.34-14.88,23.34-.3,0-.61-.01-.92-.04-15.55-8.62-18.55-32.49-6.43-49.66-.06-.08-.11-.16-.17-.25-5.26,3.54-10.51,7.08-15.77,10.63-14.26-10.57-13.35-36.17,1.83-51.31-11.79.79-24,11.39-26.67,23.15-2.57-2.72-6.4-4.14-10.49-4.14-2.46,0-5.01.52-7.44,1.58,2.82,7.57,5.64,15.14,8.45,22.72-9.08-.18-17.25-4.35-21.97-11.24-8.08.96-13.59,11.66-11.8,18.99s8.18,11.86,14.24,15.94c-6.11,2.12-11.74,6.75-15.1,12.44,9.14-2.73,18.34-4.03,27.32-4.03,32.05,0,61.08,16.63,72.87,44.18,6.95,16.26,3.53,43-15.57,49.8-26.52-29.16-56.71-58.33-98.57-63.77-10.09-1.31-20.87-1.25-29.62-5.45-8.75-4.2-14.86-14.47-10.34-24.66-9.9,3.92-19.8,7.84-29.7,11.76,10.67,11.64,21.34,23.27,32.01,34.91-16.89,6.28-32.9,16.82-45.89,30.21,2.88-1.19,5.87-1.75,8.76-1.75,7.29,0,13.96,3.6,16.79,9.78,13.99-14.84,31.57-20.26,49.81-20.26,21.78,0,44.49,7.73,63.11,16.39,21.22,9.87,45.36,28.39,34.22,52.88-.54.03-1.08.04-1.61.04-26.36,0-35.83-31.9-58.26-42.84-6.24-3.05-13.05-4.33-20.22-4.33-20.82,0-44.6,10.84-65.92,20.65-17.93,8.25-38.53,15.65-56.28,15.65-10.61,0-20.2-2.65-27.58-9.34-1.11,10.18-5.54,20.62-12.47,29.36,11.11.88,22.22,1.75,33.33,2.63-7.91,8.73-15.82,17.47-23.72,26.2,1.61,2.76,4.01,3.93,6.85,3.93,8.25,0,20.17-9.82,26.84-18.7,6.28-8.35,18.17-16.61,26.02-16.61,3.36,0,5.98,1.51,7.11,5.18-13.44,7.87-26.87,15.75-40.31,23.62,7.26.42,14.52.84,21.79,1.26-5.33,8.48-7.42,18.46-5.67,27.06,7.5-4.89,15.01-9.79,22.51-14.68-4,7.49-1.04,16.65,6.08,18.85l10.51-56.35c2.25-12.09,5.42-25.7,15.8-33.91,7.14-5.65,15.69-7.16,24.16-7.16,4.02,0,8.03.34,11.85.74,25.65,2.7,51.95,5.95,72.41,18.9,12.82,8.12,29.54,40.85,39.89,40.85,5.14,0,8.7-8.07,9.43-31.22.58-18.56,3.94-42.72,22.34-50.66,2.99-1.29,5.99-1.88,8.89-1.88,7.75,0,14.79,4.21,18.97,10.46,7.06-28.11-5.76-60.81,9.56-88.76,6.33-11.55,17.5-23.83,21.17-35.01-.15-.12-.3-.24-.45-.36.24-.21.49-.4.75-.59,1.33-4.59,1.33-8.98-.87-13.04,20.33-3.7,40.39-18.16,51.22-36.93-4.79,4.22-10.82,6.2-16.54,6.2-8.36,0-16.05-4.24-18.21-11.92-8.17,13.02-16.35,26.04-24.52,39.07-12.11-2.03-4.55-21.21,4.35-31.97s15.18-30.56,2.66-31.23h0ZM298,18.16c1.98,1.39,3.95,2.78,5.93,4.18-1.74-1.6-3.71-3-5.93-4.18h0ZM396.39,60.44c-9.33,8.38-18.66,16.75-27.99,25.13-1.23-4.67-5.87-7.29-10.92-7.29-3,0-6.15.92-8.81,2.89-.09.32-.19.63-.29.95,20.84,16.51,29.21,46.61,21.02,75.84-6.83,24.38-24.96,47.32-47.53,61.24.81,11.34-3.46,23.84-8.85,35.32,17.18.34,32.29,9.39,39.44,23.63-2.01,4.9-4.01,9.8-6.02,14.71,14.28-1.86,28.55-3.72,42.83-5.58-11.18,11.29-22.35,22.59-33.53,33.88,13.26-8.01,27.93-11.79,41.98-11.79,25.56,0,49.06,12.49,58.18,34.65,8.65-15.9,27.43-25.4,43.92-25.4,8.88,0,17.09,2.76,22.7,8.75-3.69-8.69-7.37-17.39-11.06-26.08,5.97-3.73,11.94-7.45,17.9-11.18-3.43-3.58-6.86-7.16-10.3-10.75-14.69,10.67-30.69,21.45-47.39,23.01-.97.09-1.94.13-2.91.13-15.62,0-29.9-11.6-26.17-27.23,5.38-.84,10.74-1.25,16.03-1.25,16.28,0,31.81,3.94,44.79,11.51-4.19-10.86-8.39-21.72-12.58-32.58,6.92-3.55,12.5-10.42,14.31-17.64-11.89,4.9-22.94,13.09-31.36,23.26l.66-18.73c-15.59,24.63-44.09,42.22-71.08,43.86-2.25-18.87,2.5-39.76,13.22-58.17-4.66,4.75-11.18,7.28-17.18,7.28-4.09,0-7.93-1.18-10.76-3.63-2.7,14.52.46,28.91,8.62,39.21-7.59,3.61-15.59,5.31-23.31,5.31-17.67,0-33.83-8.92-40.11-24.26,56.49-32.52,113.31-64.29,170.43-95.32-6.82,11.46-4.73,25.97,4.65,32.21,3.41-8.86,9.15-17.24,16.43-23.96,3.97,3.48,7.93,6.97,11.9,10.45,5.81-10.04,2.04-22.75-7.64-25.75,8.04-3.48,16.08-6.96,24.12-10.44-11.46-1.4-18.67-13.24-15.29-25.1-37.53,33.19-81.78,56.62-125.36,79.6-31.23,16.46-62.46,32.93-93.69,49.39,52.89-43.62,105.78-87.24,158.67-130.87-.36-8.04,5.47-17.13,13.47-20.98-9.35-3.92-18.7-7.84-28.04-11.76-5.14,2.65-10.28,5.31-15.41,7.96-5.71-7.34-11.41-14.67-17.12-22.01-3.43,4.02-8.68,6.29-13.44,6.29-2.44,0-4.74-.59-6.61-1.85,1.52,17.07,14.79,28.64,20.66,43.99,5.87,15.35-2.43,41.3-20.26,42.98-.62.06-1.22.09-1.81.09-6.45,0-10.82-3.47-13.64-8.72-2.93,10.08-9.32,19.78-18.41,26.14-3.41-17.4,2.37-37.62,14.22-54.06.07-.97.15-1.93.25-2.88.32.42.63.85.93,1.29,5.59-7.4,12.42-13.96,20.19-19.06-5.55-12.21-11.11-24.43-16.66-36.64h0ZM392.86,116.14c-.4.53-.79,1.06-1.17,1.59-.67,9.73.25,20.57,4.19,27.92,3.08-10.56,2.36-21.53-3.02-29.51h0ZM317.65,205.89c-1.83,7.27-4.99,14.24-10.31,20.73,4.99-2.04,9.86-4.54,14.53-7.42-.15-2.05-.46-4.07-.97-6.04-.67-2.62-1.79-5.07-3.26-7.27h0Z"/>
  </g>
</svg>